<?xml version="1.0" encoding="utf-8"?>
<!-- Generator: Adobe Illustrator 19.2.0, SVG Export Plug-In . SVG Version: 6.00 Build 0)  -->
<svg version="1.1" id="Calque_1" xmlns="http://www.w3.org/2000/svg" xmlns:xlink="http://www.w3.org/1999/xlink" x="0px" y="0px"
	 viewBox="0 0 800 800" style="enable-background:new 0 0 800 800;" xml:space="preserve">
<style type="text/css">
	.st0{fill:none;}
	.st1{fill:#4A2F20;}
	.st2{fill:#482A1E;}
	.st3{fill:#F394A8;}
	.st4{fill:#EE5988;}
	.st5{fill:#FBC983;}
	.st6{fill:#F2B658;}
	.st7{fill:#F05989;}
	.st8{fill:#EBE0BC;}
	.st9{fill:#FDFCFC;}
	.st10{fill:#492E1F;}
	.st11{fill:#482D1E;}
	.st12{fill:#F9D1D3;}
	.st13{fill:#FDF9EC;}
	.st14{fill:#F6F5F3;}
</style>
<g>
	<g>
		<path class="st0" d="M203,400.5c0-89.5,0-179-0.1-268.5c0-3.4,0.7-4.1,4.1-4.1c129.7,0.1,259.3,0.1,389,0c3.4,0,4.1,0.7,4.1,4.1
			c-0.1,179.3-0.1,358.7,0,538c0,3.4-0.7,4.1-4.1,4.1c-129.7-0.1-259.3-0.1-389,0c-3.4,0-4.1-0.7-4.1-4.1
			C203,580.2,203,490.3,203,400.5z M471.6,217.8c-1.5-3.6-2.8-7.4-4.7-10.9c-1.6-2.9-4.2-5.8-7.6-5.8c-8.7-0.2-16.6-3-23.9-7.4
			c-3.8-2.4-7-2-10.3,0.6c-7.5,5.7-16.2,8.8-25.3,8.5c-19.6-0.5-35-8.9-43.7-27.1c-2.2-4.6-5.2-6.6-10-6.7c-9.1-0.2-17.7-2-25.2-7.5
			c-1.3-1-3-0.8-4.3-0.3c-6,2.6-12.4,4.4-17.8,8.4c-4.3,1.7-8.2,4.2-12.2,6.6c-19.5,11.5-37,25.4-49,44.9
			c-14.3,23.2-18.1,47.9-6.9,73.3c10.5,23.8,22.1,47.1,33.3,70.6c15.1,31.8,30.1,63.6,45.2,95.4c15.4,32.5,30.8,64.9,46.2,97.4
			c2.7,5.6,6.5,10.4,12,13.6c10.8,6.3,22.4,6.3,34.2,3.7c14.2-3.1,26.6-10.5,39.6-16.3c5.8-2.6,5.8-2.6,8.1,3.4
			c7.7,19.9,16.5,39.2,28.9,56.8c8.9,12.6,19,23.8,33.6,30.1c16.6,7.2,31.7,3,39.6-13.5c6.1-12.7,6-26,3.5-39.4
			c-4.9-25.8-16.4-49-29.3-71.5c-2.2-3.9-1.7-5.5,2-6.9c0.8-0.3,1.5-0.6,2.3-1c14.6-6.9,29.9-12.8,41.8-24.3
			c12.1-11.8,18.3-27.2,9.6-44.7c-17.4-35.2-33.8-70.9-50.6-106.3c-13.8-29.2-27.6-58.5-41.6-87.6
			C483.3,241.7,478.2,229.4,471.6,217.8z"/>
		<path class="st1" d="M471.6,217.8c6.7,11.5,11.7,23.8,17.5,35.8c14,29.2,27.7,58.4,41.6,87.6c16.8,35.5,33.1,71.2,50.6,106.3
			c8.7,17.5,2.5,33-9.6,44.7c-11.9,11.5-27.1,17.4-41.8,24.3c-0.7,0.4-1.5,0.7-2.3,1c-3.7,1.5-4.2,3.1-2,6.9
			c13,22.5,24.4,45.7,29.3,71.5c2.6,13.4,2.6,26.7-3.5,39.4c-7.9,16.5-22.9,20.7-39.6,13.5c-14.5-6.3-24.7-17.5-33.6-30.1
			c-12.3-17.5-21.2-36.9-28.9-56.8c-2.3-6-2.3-6-8.1-3.4c-13,5.9-25.4,13.2-39.6,16.3c-11.8,2.6-23.4,2.6-34.2-3.7
			c-5.5-3.2-9.4-8-12-13.6c-15.5-32.4-30.8-64.9-46.2-97.4c-15.1-31.8-30.1-63.6-45.2-95.4c-11.1-23.5-22.8-46.8-33.3-70.6
			c-11.2-25.4-7.5-50.1,6.9-73.3c12.1-19.5,29.5-33.4,49-44.9c4-2.3,7.9-4.9,12.2-6.6c0.2,1.3-0.1,2.8,1.1,3.7
			c2.6,2,1.6,3.9,0.1,5.8c-1.5,1-3,2-4.6,2.9c-16.6,9.5-31.9,20.6-43.8,35.8c-14.6,18.7-21.1,39.5-15.5,63.1
			c2.8,11.7,9.2,22.1,14.3,32.9c33.9,71.7,67.8,143.4,101.9,215c4.7,9.9,8.5,20.3,14.7,29.4c4.2,6.6,10.8,8.4,17.9,8.9
			c12.5,0.9,24-3.2,35-8.5c36.9-17.4,73.7-34.9,110.5-52.4c12.5-5.9,25.3-11.2,35.3-21.2c11.2-11.3,12.9-20.4,6.1-34.7
			c-29.2-61.5-58.4-123-87.5-184.5c-5.7-12-12-23.8-16.8-36.2c0.3-1.5-0.1-2.9-0.7-4.3C465.3,220.6,466.5,218.8,471.6,217.8z
			 M496.1,626c5.5,6.6,12.2,11.7,20.2,14.9c13.8,5.4,23.9,0.6,28.5-13.4c3.3-10.1,2.6-20.3,0.6-30.5c-4.4-22.8-14.4-43.4-25.5-63.5
			c-5.3-9.6-5.4-9.5-14.8-3.9c-0.1,0.1-0.2,0.3-0.3,0.4c-16,6.6-31.3,14.6-47,21.8c-2,0.9-1.6,2.1-1,3.6
			C466.9,580.6,477.7,605.4,496.1,626z"/>
		<path class="st2" d="M471.6,217.8c-5.1,1-6.2,2.8-4.4,7.3c0.6,1.4,1,2.8,0.7,4.3c-1.1-1.7-2.2-3.4-3.8-6
			c-2.2,9.6-9.4,13.9-16,18.7c-0.5,0-1.1-0.2-1.5,0c-7.2,5-14.8,6.1-23.2,3.6c-2.8-0.8-4.8,0.9-6.4,3.1c-1.2,0-2.2,0.3-3.3,0.8
			c-11.5,4.3-23.3,6.9-35.6,5.4c-2.8,0.5-4.8-1.7-7.3-2.3c-13.9-3.4-24.5-11.8-32.9-23.2c-2.7-3.7-5.3-7.5-9.7-9.5
			c-11.4-5.2-17.4-15.1-22-26c-2-4.9-2.3-10.6-6.1-14.9c1.5-2,2.5-3.8-0.1-5.8c-1.1-0.9-0.9-2.4-1.1-3.7c5.4-4,11.8-5.7,17.8-8.4
			c1.3-0.6,3-0.7,4.3,0.3c7.5,5.5,16.1,7.3,25.2,7.5c4.7,0.1,7.8,2.1,10,6.7c8.7,18.2,24.1,26.6,43.7,27.1
			c9.1,0.2,17.9-2.8,25.3-8.5c3.4-2.6,6.5-2.9,10.3-0.6c7.3,4.5,15.1,7.2,23.9,7.4c3.4,0.1,6,3,7.6,5.8
			C468.8,210.4,470,214.2,471.6,217.8z M430.2,237.4c12.8,0.3,27.6-12.9,28.8-24.7c0.4-4.2-1.7-7-6-6.6c-7.3,0.6-13.8-1.4-20-4.8
			c-3.2-1.8-6.3-1.4-9.4,0.7c-4.3,3-9,5-14.1,6c-23.9,4.8-46.2-5.8-57.5-27.8c-2.4-4.6-5.1-7.1-10.5-6.1c-7,1.4-13.5-0.3-19.7-3.4
			c-6.9-3.5-10.7-1.1-10.8,6.8c0,14.7,8.5,27.7,22,33.3c2.1,0.8,3.3,2,4.2,3.9c13.6,28.4,50.2,40,77.6,26.3
			C420.1,238.3,424.9,234.4,430.2,237.4z"/>
		<path class="st3" d="M300,179.1c3.7,4.3,4,9.9,6.1,14.9c4.5,11,10.5,20.8,22,26c4.4,2,7,5.9,9.7,9.5c8.4,11.4,19.1,19.8,32.9,23.2
			c2.5,0.6,4.5,2.8,7.3,2.3c3.8,8.3,7.6,16.6,11.5,24.8c13.5,28.4,27,56.7,40.5,85.1c4.1,8.7,8.1,17.5,12.2,26.2
			c8.1,17.1,16.3,34.2,24.6,51.3c2.5,5,6.3,6.4,11.6,4.9c1.6-0.5,3.2-0.9,4.8-1.4c3.7,17.4,20.5,21.4,31.8,13.9
			c2.1,3.7,5.5,5,9.5,5.1c10.3,0.3,17.9-4.8,22.4-15.1c0.7,7.8-0.5,15-5.6,21.5c-7,9-16.2,15.2-26.2,20c-19,9.1-38.1,17.8-57.1,26.8
			c-21.6,10.3-43,20.8-64.7,31c-8.3,4-16.7,8-26.2,8.8c-6.2-9.1-10-19.5-14.7-29.4c-34.1-71.6-68.1-143.3-101.9-215
			c-5.1-10.8-11.5-21.1-14.3-32.9c-5.6-23.6,0.9-44.4,15.5-63.1c11.9-15.2,27.2-26.3,43.8-35.8C297,181.1,298.5,180.1,300,179.1z
			 M443.4,497.9c5.4,0.6,10.7-0.5,15.3-3.2c4.1-2.4,9.4-3.9,10.3-9.7c5.8-5.1,5.5-14.2-0.5-19.1c-2.3-1.8-3.7-2.5-5.6,1
			c-5.6,10.2-17.3,16-28.6,14c-5.2-0.9-5.2,1.6-4.9,5C430.2,492.5,434.2,495.9,443.4,497.9z M377.2,512.8
			c-6.1,2.1-10.8,5.8-13.1,12.1c-1.7,4.6,0.3,9.3,5.1,10.7c11.3,3.4,29.4-5.9,26.7-19.1c15-7,18.3-19.4,9-33.3
			c3.4-2.8,7.7-3.7,11.5-5.8c7.9-4.5,9.1-8,5.2-16.2c-4.2-8.7-8.3-17.3-12.4-26c-18.8-39.8-37.5-79.6-56.4-119.4
			c-8.5-17.9-17.1-35.7-25.6-53.5c-3.6-7.5-7.9-9.4-15.5-6c-5.3,2.3-10.5,4.9-15.5,7.8c-5.1,2.9-6.3,7.5-3.8,12.8
			c11.9,25.2,23.8,50.4,35.8,75.6c14.8,31.1,29.7,62,44.5,93.1c5,10.5,9.6,21.1,14.4,31.7c-3.3,1.1-6.6,2.1-9.4,4.3
			C367.9,489.3,367.7,501.7,377.2,512.8z M245.8,262.4c-0.4,8.6,2.4,16.8,8.7,23.6c4.6,5,9.7,4.1,12.9-1.9c1.3-2.4,2.2-4.9,2.6-7.5
			c1.3-9.3,3.1-18.3,8.7-26.2c0.8-1.2,1.2-2.7,1.6-4.2c1.9-6.5-0.5-13.6-5.5-16.9c-4.1-2.6-10.4-1.6-15.6,3
			C250.4,240.2,245.6,249.9,245.8,262.4z"/>
		<path class="st4" d="M367.1,558.1c9.4-0.8,17.8-4.9,26.2-8.8c21.6-10.2,43.1-20.8,64.7-31c19-9,38.1-17.7,57.1-26.8
			c10.1-4.8,19.2-11,26.2-20c5.1-6.5,6.3-13.7,5.6-21.5c-0.3-4.3-1.9-7.8-5.9-9.9c-0.4-1.2-0.7-2.5-1.3-3.7
			c-7.5-16.1-15-32.2-22.7-48.3c-16.7-35.3-33.6-70.5-50.3-105.7c-6.3-13.3-12.5-26.8-18.8-40.2c6.6-4.8,13.8-9.1,16-18.7
			c1.6,2.6,2.7,4.3,3.8,6c4.8,12.4,11.1,24.2,16.8,36.2c29.1,61.6,58.3,123,87.5,184.5c6.8,14.3,5.1,23.4-6.1,34.7
			c-10,10.1-22.9,15.3-35.3,21.2c-36.8,17.5-73.7,35-110.5,52.4c-11.1,5.2-22.5,9.3-35,8.5C377.9,566.5,371.2,564.7,367.1,558.1z"/>
		<path class="st5" d="M496.1,626c-18.4-20.6-29.3-45.4-39.1-70.7c-0.6-1.5-1-2.7,1-3.6c15.7-7.2,31-15.2,47-21.8
			c0.2,1,0.1,2.1,0.6,2.9c6.1,11.4,10.4,23.6,14.4,35.8c5.1,15.6,7.4,31.1,1.1,47c-3.2,8.1-11.3,12.8-19.9,10.9
			C499.4,626.2,497.8,626.2,496.1,626z"/>
		<path class="st6" d="M496.1,626c1.6,0.2,3.3,0.2,4.9,0.5c8.7,1.8,16.7-2.8,19.9-10.9c6.3-15.9,4-31.4-1.1-47
			c-4-12.3-8.3-24.4-14.4-35.8c-0.4-0.8-0.4-1.9-0.6-2.9c0.1-0.1,0.2-0.3,0.3-0.4c9.4-5.6,9.5-5.6,14.8,3.9
			c11.1,20.1,21.1,40.7,25.5,63.5c2,10.2,2.6,20.4-0.6,30.5c-4.6,14-14.7,18.8-28.5,13.4C508.3,637.7,501.6,632.7,496.1,626z"/>
		<path class="st7" d="M483.2,446c-1.6,0.5-3.2,0.9-4.8,1.4c-5.3,1.5-9.1,0.2-11.6-4.9c-8.3-17-16.4-34.2-24.6-51.3
			c-4.1-8.7-8.1-17.5-12.2-26.2c-13.5-28.4-27-56.7-40.5-85.1c-3.9-8.2-7.7-16.5-11.5-24.8c12.4,1.5,24.2-1.1,35.6-5.4
			c1.1-0.4,2.2-0.7,3.3-0.8c3,6.6,5.9,13.3,9.1,19.9c16.5,34.8,33.1,69.5,49.6,104.3c8,16.8,15.7,33.7,23.5,50.6
			C487.9,427.5,483.1,434.3,483.2,446z"/>
		<path class="st3" d="M499.1,423.7c-7.8-16.9-15.5-33.8-23.5-50.6c-16.5-34.8-33.1-69.5-49.6-104.3c-3.1-6.6-6-13.3-9.1-19.9
			c1.5-2.2,3.5-4,6.4-3.1c8.3,2.5,16,1.5,23.2-3.6c0.3-0.2,1,0,1.5,0c6.2,13.4,12.4,26.8,18.8,40.2c16.7,35.3,33.6,70.5,50.3,105.7
			c7.6,16.1,15.1,32.2,22.7,48.3c0.6,1.2,0.9,2.5,1.3,3.7c-6.1-0.5-12,0.1-17.6,3C521.3,429.2,513.5,423,499.1,423.7z"/>
		<path class="st8" d="M430.2,237.4c-5.3-3-10.1,0.9-15.4,3.5c-27.4,13.7-63.9,2.1-77.6-26.3c-0.9-1.9-2.1-3-4.2-3.9
			c-13.6-5.6-22.1-18.6-22-33.3c0-7.9,3.8-10.3,10.8-6.8c6.2,3.2,12.8,4.8,19.7,3.4c5.4-1,8.1,1.5,10.5,6.1
			c11.2,21.9,33.6,32.6,57.5,27.8c5.1-1,9.9-3,14.1-6c3.1-2.1,6.1-2.4,9.4-0.7c6.3,3.4,12.7,5.4,20,4.8c4.3-0.4,6.4,2.5,6,6.6
			C457.8,224.5,443,237.7,430.2,237.4z M430.6,226.2c3.6-0.6,6.4-1.2,8.6-3.1c1.7-1.5,4.5-2.8,4.2-5.2c-0.2-1.9-3.2-0.7-4.8-1.6
			c-1.7-1-3.8-1.3-5.5-2.3c-2.7-1.6-4.8-1.3-7.7,0.1c-19.4,9.6-38.6,8.6-57.6-1.5c-10.2-5.4-17.8-13.2-23.7-22.9
			c-1.2-1.9-2.2-4.1-5.2-3.8c-4.1,0.3-8.3,0.1-12.3-1.2c-2.9-0.9-2.9,0.4-2,2.5c2.6,6,6.5,10.9,13.1,12.8c4.7,1.4,7.8,4.4,9.6,8.7
			c10.1,24,42.4,32.9,63.4,21.4C417.2,226.6,423.2,221.2,430.6,226.2z"/>
		<path class="st7" d="M387.1,477.1c-4.8-10.6-9.5-21.2-14.4-31.7c-14.8-31.1-29.7-62.1-44.5-93.1c-12-25.2-23.9-50.4-35.8-75.6
			c-2.5-5.3-1.3-9.9,3.8-12.8c5-2.8,10.2-5.4,15.5-7.8c7.6-3.4,12-1.5,15.5,6c8.5,17.9,17.2,35.6,25.6,53.5
			c18.8,39.8,37.6,79.6,56.4,119.4c4.1,8.7,8.3,17.4,12.4,26c3.9,8.1,2.7,11.7-5.2,16.2c-3.7,2.1-8.1,3-11.5,5.8
			C399.8,478.6,393.9,476.6,387.1,477.1z"/>
		<path class="st9" d="M245.8,262.4c-0.2-12.6,4.6-22.3,13.4-30c5.2-4.6,11.5-5.7,15.6-3c5,3.3,7.4,10.4,5.5,16.9
			c-0.4,1.4-0.8,3-1.6,4.2c-5.7,7.8-7.4,16.9-8.7,26.2c-0.4,2.7-1.3,5.2-2.6,7.5c-3.2,6-8.2,6.9-12.9,1.9
			C248.3,279.2,245.4,271.1,245.8,262.4z"/>
		<path class="st10" d="M387.1,477.1c6.8-0.5,12.7,1.6,17.8,6.1c9.3,13.9,6,26.3-9,33.3c-6.8,1.5-13,0.2-18.7-3.7
			c-9.6-11.1-9.3-23.5,0.5-31.3C380.5,479.2,383.8,478.2,387.1,477.1z M389.9,493.9c-0.1-4.5-3.9-8.1-8.5-8
			c-4.5,0.1-8.2,3.8-8.3,8.3c0,4.6,4.1,8.5,8.8,8.2C386.5,502.2,390,498.4,389.9,493.9z M400.5,504.8c2.4-0.5,3.9-1.9,3.8-4.4
			s-1.7-3.9-4.2-3.8c-2.6,0.1-4,1.8-3.8,4.2C396.4,503.3,398.1,504.6,400.5,504.8z"/>
		<path class="st11" d="M499.1,423.7c14.4-0.8,22.3,5.5,24.3,19.4c-0.2,6.9-3.2,12.4-8.4,16.8c-11.3,7.4-28.1,3.5-31.8-13.9
			C483.1,434.3,487.9,427.5,499.1,423.7z M494.4,432.2c-4.5,0.1-8.2,3.9-8.2,8.4c0,4.7,4.1,8.5,8.8,8.2c4.5-0.2,8.1-4.2,7.9-8.6
			C502.8,435.8,498.9,432.1,494.4,432.2z M513.6,443c-2.7,0-4.3,1.5-4.4,3.9s1.3,4.1,3.9,4.2c2.6,0.1,4.1-1.4,4.2-3.9
			C517.5,444.8,516.2,443.2,513.6,443z"/>
		<path class="st10" d="M443.4,497.9c-9.2-2-13.2-5.4-13.9-12c-0.3-3.4-0.3-5.9,4.9-5c11.3,2,23-3.8,28.6-14c1.9-3.4,3.3-2.8,5.6-1
			c6,4.9,6.2,13.9,0.5,19.1C457.9,481.4,448.1,486.3,443.4,497.9z"/>
		<path class="st12" d="M514.9,459.9c5.2-4.4,8.2-9.9,8.4-16.8c5.5-3,11.4-3.6,17.6-3c4,2.1,5.7,5.5,5.9,9.9
			c-4.5,10.3-12.1,15.4-22.4,15.1C520.4,464.9,517,463.7,514.9,459.9z"/>
		<path class="st12" d="M377.2,512.8c5.7,3.9,11.9,5.2,18.7,3.7c2.7,13.2-15.3,22.5-26.7,19.1c-4.7-1.4-6.8-6.1-5.1-10.7
			C366.5,518.6,371.2,514.9,377.2,512.8z"/>
		<path class="st12" d="M443.4,497.9c4.7-11.6,14.4-16.5,25.6-12.9c-1,5.8-6.3,7.4-10.3,9.7C454.2,497.4,448.9,498.5,443.4,497.9z"
			/>
		<path class="st13" d="M430.6,226.2c-7.4-5-13.4,0.4-19.9,4c-21,11.5-53.3,2.6-63.4-21.4c-1.8-4.3-5-7.3-9.6-8.7
			c-6.5-2-10.4-6.8-13.1-12.8c-0.9-2-0.8-3.4,2-2.5c4,1.3,8.2,1.6,12.3,1.2c3-0.3,4.1,1.9,5.2,3.8c5.9,9.7,13.6,17.5,23.7,22.9
			c19,10.1,38.2,11.1,57.6,1.5c2.9-1.4,5-1.8,7.7-0.1c1.7,1,3.8,1.3,5.5,2.3c1.6,1,4.5-0.3,4.8,1.6c0.3,2.4-2.5,3.7-4.2,5.2
			C437,225,434.2,225.6,430.6,226.2z"/>
		<path class="st14" d="M389.9,493.9c0.1,4.6-3.4,8.3-8,8.5c-4.7,0.2-8.8-3.6-8.8-8.2c0-4.5,3.7-8.2,8.3-8.3
			C386,485.8,389.7,489.3,389.9,493.9z"/>
		<path class="st14" d="M400.5,504.8c-2.5-0.2-4.2-1.6-4.3-4c-0.1-2.4,1.3-4.1,3.8-4.2s4.1,1.3,4.2,3.8
			C404.4,502.9,402.9,504.3,400.5,504.8z"/>
		<path class="st14" d="M494.4,432.2c4.5-0.1,8.4,3.6,8.6,8c0.2,4.5-3.5,8.4-7.9,8.6c-4.8,0.2-8.8-3.6-8.8-8.2
			C486.2,436.1,489.9,432.2,494.4,432.2z"/>
		<path class="st14" d="M513.6,443c2.5,0.2,3.8,1.8,3.8,4.2c-0.1,2.5-1.6,4-4.2,3.9c-2.6-0.1-4.1-1.8-3.9-4.2
			C509.4,444.5,510.9,443,513.6,443z"/>
	</g>
</g>
</svg>
