<?xml version="1.0" encoding="utf-8"?>
<!-- Generator: Adobe Illustrator 19.2.0, SVG Export Plug-In . SVG Version: 6.00 Build 0)  -->
<svg version="1.1" id="Calque_1" xmlns="http://www.w3.org/2000/svg" xmlns:xlink="http://www.w3.org/1999/xlink" x="0px" y="0px"
	 viewBox="0 0 800 800" style="enable-background:new 0 0 800 800;" xml:space="preserve">
<style type="text/css">
	.st0{fill:none;}
	.st1{stroke:#000000;stroke-width:25;stroke-miterlimit:10;}
	.st2{stroke:#000000;stroke-width:23;stroke-miterlimit:10;}
	.st3{fill:#EE5988;}
	.st4{fill:#FBC983;}
	.st5{fill:#F2B658;}
	.st6{fill:#F05989;}
	.st7{fill:#EBE0BC;}
	.st8{fill:#FDF9EC;}
</style>
<g>
	<g>
		<path class="st0" d="M109.2,398.8c0-131.3,0-262.6-0.1-393.8c0-5,1-6,6-6c190.2,0,380.3,0,570.6-0.1c5,0,6,1,6,6
			c-0.1,263-0.1,526.1,0,789.1c0,5-1,6-6,6c-190.2-0.1-380.3-0.1-570.6,0c-5,0-6-1-6-6C109.2,662.3,109.2,530.5,109.2,398.8z
			 M503.2,130.8c-2.2-5.3-4.1-10.9-6.9-16c-2.3-4.3-6.2-8.5-11.1-8.5c-12.8-0.3-24.3-4.4-35.1-10.9c-5.6-3.5-10.3-2.9-15.1,0.9
			c-11,8.4-23.8,12.9-37.1,12.5c-28.7-0.7-51.3-13.1-64.1-39.8c-3.2-6.7-7.6-9.7-14.7-9.8c-13.3-0.3-26-2.9-37-11
			c-1.9-1.5-4.4-1.2-6.3-0.4c-8.8,3.8-18.2,6.5-26.1,12.3c-6.3,2.5-12,6.2-17.9,9.7c-28.6,16.9-54.3,37.3-71.9,65.9
			c-21,34-26.5,70.3-10.1,107.5c15.4,34.9,32.4,69.1,48.8,103.6c22.1,46.6,44.2,93.3,66.3,139.9c22.6,47.7,45.2,95.2,67.8,142.9
			c4,8.2,9.5,15.3,17.6,19.9c15.8,9.2,32.9,9.2,50.2,5.4c20.8-4.5,39-15.4,58.1-23.9c8.5-3.8,8.5-3.8,11.9,5
			c11.3,29.2,24.2,57.5,42.4,83.3c13.1,18.5,27.9,34.9,49.3,44.2c24.3,10.6,46.5,4.4,58.1-19.8c8.9-18.6,8.8-38.1,5.1-57.8
			c-7.2-37.8-24.1-71.9-43-104.9c-3.2-5.7-2.5-8.1,2.9-10.1c1.2-0.4,2.2-0.9,3.4-1.5c21.4-10.1,43.9-18.8,61.3-35.6
			c17.7-17.3,26.8-39.9,14.1-65.6c-25.5-51.6-49.6-104-74.2-155.9c-20.2-42.8-40.5-85.8-61-128.5
			C520.4,165.8,512.9,147.8,503.2,130.8z"/>
		<path class="st1" d="M503.2,130.8c9.8,16.9,17.2,34.9,25.7,52.5c20.5,42.8,40.6,85.7,61,128.5c24.6,52.1,48.6,104.4,74.2,155.9
			c12.8,25.7,3.7,48.4-14.1,65.6c-17.5,16.9-39.8,25.5-61.3,35.6c-1,0.6-2.2,1-3.4,1.5c-5.4,2.2-6.2,4.5-2.9,10.1
			c19.1,33,35.8,67,43,104.9c3.8,19.7,3.8,39.2-5.1,57.8c-11.6,24.2-33.6,30.4-58.1,19.8c-21.3-9.2-36.2-25.7-49.3-44.2
			c-18-25.7-31.1-54.1-42.4-83.3c-3.4-8.8-3.4-8.8-11.9-5c-19.1,8.7-37.3,19.4-58.1,23.9c-17.3,3.8-34.3,3.8-50.2-5.4
			c-8.1-4.7-13.8-11.7-17.6-19.9c-22.7-47.5-45.2-95.2-67.8-142.9c-22.1-46.6-44.2-93.3-66.3-139.9c-16.3-34.5-33.4-68.6-48.8-103.6
			c-16.4-37.3-11-73.5,10.1-107.5c17.7-28.6,43.3-49,71.9-65.9c5.9-3.4,11.6-7.2,17.9-9.7c0.3,1.9-0.1,4.1,1.6,5.4
			c3.8,2.9,2.3,5.7,0.1,8.5c-2.2,1.5-4.4,2.9-6.7,4.3c-24.3,13.9-46.8,30.2-64.2,52.5c-21.4,27.4-30.9,57.9-22.7,92.6
			c4.1,17.2,13.5,32.4,21,48.3c49.7,105.2,99.4,210.3,149.5,315.4c6.9,14.5,12.5,29.8,21.6,43.1c6.2,9.7,15.8,12.3,26.3,13.1
			c18.3,1.3,35.2-4.7,51.3-12.5c54.1-25.5,108.1-51.2,162.1-76.9c18.3-8.7,37.1-16.4,51.8-31.1c16.4-16.6,18.9-29.9,8.9-50.9
			C607.5,381.2,564.6,291,522,200.8c-8.4-17.6-17.6-34.9-24.6-53.1c0.4-2.2-0.1-4.3-1-6.3C494,134.9,495.7,132.2,503.2,130.8z
			 M539.2,729.5c8.1,9.7,17.9,17.2,29.6,21.9c20.2,7.9,35.1,0.9,41.8-19.7c4.8-14.8,3.8-29.8,0.9-44.7
			c-6.5-33.4-21.1-63.7-37.4-93.1c-7.8-14.1-7.9-13.9-21.7-5.7c-0.1,0.1-0.3,0.4-0.4,0.6c-23.5,9.7-45.9,21.4-68.9,32
			c-2.9,1.3-2.3,3.1-1.5,5.3C496.3,662.9,512.2,699.3,539.2,729.5z"/>
		<path class="st2" d="M503.2,130.8c-7.5,1.5-9.1,4.1-6.5,10.7c0.9,2.1,1.5,4.1,1,6.3c-1.6-2.5-3.2-5-5.6-8.8
			c-3.2,14.1-13.8,20.4-23.5,27.4c-0.7,0-1.6-0.3-2.2,0c-10.6,7.3-21.7,8.9-34,5.3c-4.1-1.2-7,1.3-9.4,4.5c-1.8,0-3.2,0.4-4.8,1.2
			c-16.9,6.3-34.2,10.1-52.2,7.9c-4.1,0.7-7-2.5-10.7-3.4c-20.4-5-35.9-17.3-48.3-34c-4-5.4-7.8-11-14.2-13.9
			c-16.7-7.6-25.5-22.1-32.3-38.1c-2.9-7.2-3.4-15.5-8.9-21.9c2.2-2.9,3.7-5.6-0.1-8.5c-1.6-1.3-1.3-3.5-1.6-5.4
			c7.9-5.9,17.3-8.4,26.1-12.3c1.9-0.9,4.4-1,6.3,0.4c11,8.1,23.6,10.7,37,11c6.9,0.1,11.4,3.1,14.7,9.8
			c12.8,26.7,35.3,39,64.1,39.8c13.3,0.3,26.3-4.1,37.1-12.5c5-3.8,9.5-4.3,15.1-0.9c10.7,6.6,22.1,10.6,35.1,10.9
			c5,0.1,8.8,4.4,11.1,8.5C499.1,119.9,500.9,125.5,503.2,130.8z M442.5,159.5c18.8,0.4,40.5-18.9,42.2-36.2
			c0.6-6.2-2.5-10.3-8.8-9.7c-10.7,0.9-20.2-2.1-29.3-7c-4.7-2.6-9.2-2.1-13.8,1c-6.3,4.4-13.2,7.3-20.7,8.8
			c-35.1,7-67.8-8.5-84.3-40.8c-3.5-6.7-7.5-10.4-15.4-8.9c-10.3,2.1-19.8-0.4-28.9-5c-10.1-5.1-15.7-1.6-15.8,10
			c0,21.6,12.5,40.6,32.3,48.8c3.1,1.2,4.8,2.9,6.2,5.7c19.9,41.7,73.6,58.7,113.8,38.6C427.7,160.8,434.7,155.1,442.5,159.5z"/>
		<path class="st3" d="M251.5,74c5.4,6.3,5.9,14.5,8.9,21.9c6.6,16.1,15.4,30.5,32.3,38.1c6.5,2.9,10.3,8.7,14.2,13.9
			c12.3,16.7,28,29,48.3,34c3.7,0.9,6.6,4.1,10.7,3.4c5.6,12.2,11.1,24.3,16.9,36.4c19.8,41.7,39.6,83.2,59.4,124.8
			c6,12.8,11.9,25.7,17.9,38.4c11.9,25.1,23.9,50.2,36.1,75.2c3.7,7.3,9.2,9.4,17,7.2c2.3-0.7,4.7-1.3,7-2.1
			c5.4,25.5,30.1,31.4,46.6,20.4c3.1,5.4,8.1,7.3,13.9,7.5c15.1,0.4,26.3-7,32.9-22.1c1,11.4-0.7,22-8.2,31.5
			c-10.3,13.2-23.8,22.3-38.4,29.3c-27.9,13.3-55.9,26.1-83.8,39.3c-31.7,15.1-63.1,30.5-94.9,45.5c-12.2,5.9-24.5,11.7-38.4,12.9
			c-9.1-13.3-14.7-28.6-21.6-43.1c-50-105-99.9-210.2-149.5-315.4c-7.5-15.8-16.9-30.9-21-48.3c-8.2-34.6,1.3-65.1,22.7-92.6
			c17.5-22.3,39.9-38.6,64.2-52.5C247.1,76.9,249.3,75.5,251.5,74z M461.9,541.6c7.9,0.9,15.7-0.7,22.4-4.7
			c6-3.5,13.8-5.7,15.1-14.2c8.5-7.5,8.1-20.8-0.7-28c-3.4-2.6-5.4-3.7-8.2,1.5c-8.2,15-25.4,23.5-42,20.5c-7.6-1.3-7.6,2.3-7.2,7.3
			C442.5,533.7,448.4,538.7,461.9,541.6z M364.8,563.5c-8.9,3.1-15.8,8.5-19.2,17.7c-2.5,6.7,0.4,13.6,7.5,15.7
			c16.6,5,43.1-8.7,39.2-28c22-10.3,26.8-28.5,13.2-48.8c5-4.1,11.3-5.4,16.9-8.5c11.6-6.6,13.3-11.7,7.6-23.8
			c-6.2-12.8-12.2-25.4-18.2-38.1c-27.6-58.4-55-116.8-82.7-175.1c-12.5-26.3-25.1-52.4-37.6-78.5c-5.3-11-11.6-13.8-22.7-8.8
			c-7.8,3.4-15.4,7.2-22.7,11.4c-7.5,4.3-9.2,11-5.6,18.8c17.5,37,34.9,73.9,52.5,110.9c21.7,45.6,43.6,90.9,65.3,136.6
			c7.3,15.4,14.1,30.9,21.1,46.5c-4.8,1.6-9.7,3.1-13.8,6.3C351.1,529,350.8,547.2,364.8,563.5z M172,196.2
			c-0.6,12.6,3.5,24.6,12.8,34.6c6.7,7.3,14.2,6,18.9-2.8c1.9-3.5,3.2-7.2,3.8-11c1.9-13.6,4.5-26.8,12.8-38.4
			c1.2-1.8,1.8-4,2.3-6.2c2.8-9.5-0.7-19.9-8.1-24.8c-6-3.8-15.3-2.3-22.9,4.4C178.8,163.6,171.7,177.9,172,196.2z"/>
		<path class="st3" d="M349.9,629.9c13.8-1.2,26.1-7.2,38.4-12.9c31.7-15,63.2-30.5,94.9-45.5c27.9-13.2,55.9-26,83.8-39.3
			c14.8-7,28.2-16.1,38.4-29.3c7.5-9.5,9.2-20.1,8.2-31.5c-0.4-6.3-2.8-11.4-8.7-14.5c-0.6-1.8-1-3.7-1.9-5.4
			c-11-23.6-22-47.2-33.3-70.8c-24.5-51.8-49.3-103.4-73.8-155c-9.2-19.5-18.3-39.3-27.6-59c9.7-7,20.2-13.3,23.5-27.4
			c2.3,3.8,4,6.3,5.6,8.8c7,18.2,16.3,35.5,24.6,53.1c42.7,90.4,85.5,180.4,128.3,270.6c10,21,7.5,34.3-8.9,50.9
			c-14.7,14.8-33.6,22.4-51.8,31.1c-54,25.7-108.1,51.3-162.1,76.9c-16.3,7.6-33,13.6-51.3,12.5C365.8,642.2,356,639.6,349.9,629.9z
			"/>
		<path class="st4" d="M539.2,729.5c-27-30.2-43-66.6-57.4-103.7c-0.9-2.2-1.5-4,1.5-5.3c23-10.6,45.5-22.3,68.9-32
			c0.3,1.5,0.1,3.1,0.9,4.3c8.9,16.7,15.3,34.6,21.1,52.5c7.5,22.9,10.9,45.6,1.6,68.9c-4.7,11.9-16.6,18.8-29.2,16
			C544,729.8,541.7,729.8,539.2,729.5z"/>
		<path class="st5" d="M539.2,729.5c2.3,0.3,4.8,0.3,7.2,0.7c12.8,2.6,24.5-4.1,29.2-16c9.2-23.3,5.9-46.1-1.6-68.9
			c-5.9-18-12.2-35.8-21.1-52.5c-0.6-1.2-0.6-2.8-0.9-4.3c0.1-0.1,0.3-0.4,0.4-0.6c13.8-8.2,13.9-8.2,21.7,5.7
			c16.3,29.5,30.9,59.7,37.4,93.1c2.9,15,3.8,29.9-0.9,44.7c-6.7,20.5-21.6,27.6-41.8,19.7C557.1,746.7,547.2,739.3,539.2,729.5z"/>
		<path class="st6" d="M520.2,465.5c-2.3,0.7-4.7,1.3-7,2.1c-7.8,2.2-13.3,0.3-17-7.2c-12.2-24.9-24.1-50.2-36.1-75.2
			c-6-12.8-11.9-25.7-17.9-38.4c-19.8-41.7-39.6-83.2-59.4-124.8c-5.7-12-11.3-24.2-16.9-36.4c18.2,2.2,35.5-1.6,52.2-7.9
			c1.6-0.6,3.2-1,4.8-1.2c4.4,9.7,8.7,19.5,13.3,29.2c24.2,51,48.6,101.9,72.8,153c11.7,24.6,23,49.4,34.5,74.2
			C527.1,438.4,520.1,448.3,520.2,465.5z"/>
		<path class="st3" d="M543.6,432.8c-11.4-24.8-22.7-49.6-34.5-74.2c-24.2-51-48.6-101.9-72.8-153c-4.5-9.7-8.8-19.5-13.3-29.2
			c2.2-3.2,5.1-5.9,9.4-4.5c12.2,3.7,23.5,2.2,34-5.3c0.4-0.3,1.5,0,2.2,0c9.1,19.7,18.2,39.3,27.6,59
			c24.5,51.8,49.3,103.4,73.8,155c11.1,23.6,22.1,47.2,33.3,70.8c0.9,1.8,1.3,3.7,1.9,5.4c-8.9-0.7-17.6,0.1-25.8,4.4
			C576.1,440.8,564.7,431.8,543.6,432.8z"/>
		<path class="st7" d="M442.5,159.5c-7.8-4.4-14.8,1.3-22.6,5.1c-40.2,20.1-93.7,3.1-113.8-38.6c-1.3-2.8-3.1-4.4-6.2-5.7
			c-19.9-8.2-32.4-27.3-32.3-48.8c0-11.6,5.6-15.1,15.8-10c9.1,4.7,18.8,7,28.9,5c7.9-1.5,11.9,2.2,15.4,8.9
			c16.4,32.1,49.3,47.8,84.3,40.8c7.5-1.5,14.5-4.4,20.7-8.8c4.5-3.1,8.9-3.5,13.8-1c9.2,5,18.6,7.9,29.3,7c6.3-0.6,9.4,3.7,8.8,9.7
			C483,140.6,461.3,160,442.5,159.5z M443.1,143.1c5.3-0.9,9.4-1.8,12.6-4.5c2.5-2.2,6.6-4.1,6.2-7.6c-0.3-2.8-4.7-1-7-2.3
			c-2.5-1.5-5.6-1.9-8.1-3.4c-4-2.3-7-1.9-11.3,0.1c-28.5,14.1-56.6,12.6-84.5-2.2c-15-7.9-26.1-19.4-34.8-33.6
			c-1.8-2.8-3.2-6-7.6-5.6c-6,0.4-12.2,0.1-18-1.8c-4.3-1.3-4.3,0.6-2.9,3.7c3.8,8.8,9.5,16,19.2,18.8c6.9,2.1,11.4,6.5,14.1,12.8
			c14.8,35.2,62.2,48.3,93,31.4C423.4,143.7,432.2,135.8,443.1,143.1z"/>
		<path class="st3" d="M379.3,511.1c-7-15.5-13.9-31.1-21.1-46.5c-21.7-45.6-43.6-91.1-65.3-136.6c-17.6-37-35.1-73.9-52.5-110.9
			c-3.7-7.8-1.9-14.5,5.6-18.8c7.3-4.1,15-7.9,22.7-11.4c11.1-5,17.6-2.2,22.7,8.8c12.5,26.3,25.2,52.2,37.6,78.5
			c27.6,58.4,55.2,116.8,82.7,175.1c6,12.8,12.2,25.5,18.2,38.1c5.7,11.9,4,17.2-7.6,23.8c-5.4,3.1-11.9,4.4-16.9,8.5
			C397.9,513.3,389.2,510.4,379.3,511.1z"/>
		<path class="st3" d="M172,196.2c-0.3-18.5,6.7-32.7,19.7-44c7.6-6.7,16.9-8.4,22.9-4.4c7.3,4.8,10.9,15.3,8.1,24.8
			c-0.6,2.1-1.2,4.4-2.3,6.2c-8.4,11.4-10.9,24.8-12.8,38.4c-0.6,4-1.9,7.6-3.8,11c-4.7,8.8-12,10.1-18.9,2.8
			C175.7,220.8,171.4,208.9,172,196.2z"/>
		<path class="st3" d="M379.3,511.1c10-0.7,18.6,2.3,26.1,8.9c13.6,20.4,8.8,38.6-13.2,48.8c-10,2.2-19.1,0.3-27.4-5.4
			c-14.1-16.3-13.6-34.5,0.7-45.9C369.6,514.2,374.4,512.7,379.3,511.1z M383.4,535.8c-0.1-6.6-5.7-11.9-12.5-11.7
			c-6.6,0.1-12,5.6-12.2,12.2c0,6.7,6,12.5,12.9,12C378.4,547.9,383.5,542.4,383.4,535.8z M398.9,551.7c3.5-0.7,5.7-2.8,5.6-6.5
			s-2.5-5.7-6.2-5.6c-3.8,0.1-5.9,2.6-5.6,6.2C392.9,549.5,395.4,551.4,398.9,551.7z"/>
		<path class="st3" d="M543.6,432.8c21.1-1.2,32.7,8.1,35.6,28.5c-0.3,10.1-4.7,18.2-12.3,24.6c-16.6,10.9-41.2,5.1-46.6-20.4
			C520.1,448.3,527.1,438.4,543.6,432.8z M536.7,445.2c-6.6,0.1-12,5.7-12,12.3c0,6.9,6,12.5,12.9,12c6.6-0.3,11.9-6.2,11.6-12.6
			C549,450.5,543.3,445.1,536.7,445.2z M564.8,461.1c-4,0-6.3,2.2-6.5,5.7s1.9,6,5.7,6.2c3.8,0.1,6-2.1,6.2-5.7
			C570.5,463.7,568.6,461.4,564.8,461.1z"/>
		<path class="st3" d="M461.9,541.6c-13.5-2.9-19.4-7.9-20.4-17.6c-0.4-5-0.4-8.7,7.2-7.3c16.6,2.9,33.7-5.6,42-20.5
			c2.8-5,4.8-4.1,8.2-1.5c8.8,7.2,9.1,20.4,0.7,28C483.1,517.4,468.8,524.6,461.9,541.6z"/>
		<path class="st3" d="M566.7,485.9c7.6-6.5,12-14.5,12.3-24.6c8.1-4.4,16.7-5.3,25.8-4.4c5.9,3.1,8.4,8.1,8.7,14.5
			c-6.6,15.1-17.7,22.6-32.9,22.1C574.8,493.2,569.8,491.5,566.7,485.9z"/>
		<path class="st3" d="M364.8,563.5c8.4,5.7,17.5,7.6,27.4,5.4c4,19.4-22.4,33-39.2,28c-6.9-2.1-10-8.9-7.5-15.7
			C349.1,572,356,566.6,364.8,563.5z"/>
		<path class="st3" d="M461.9,541.6c6.9-17,21.1-24.2,37.6-18.9c-1.5,8.5-9.2,10.9-15.1,14.2C477.7,540.9,469.9,542.5,461.9,541.6z"
			/>
		<path class="st8" d="M443.1,143.1c-10.9-7.3-19.7,0.6-29.2,5.9c-30.8,16.9-78.2,3.8-93-31.4c-2.6-6.3-7.3-10.7-14.1-12.8
			c-9.5-2.9-15.3-10-19.2-18.8c-1.3-2.9-1.2-5,2.9-3.7c5.9,1.9,12,2.3,18,1.8c4.4-0.4,6,2.8,7.6,5.6c8.7,14.2,19.9,25.7,34.8,33.6
			c27.9,14.8,56,16.3,84.5,2.2c4.3-2.1,7.3-2.6,11.3-0.1c2.5,1.5,5.6,1.9,8.1,3.4c2.3,1.5,6.6-0.4,7,2.3c0.4,3.5-3.7,5.4-6.2,7.6
			C452.5,141.3,448.4,142.2,443.1,143.1z"/>
		<path class="st3" d="M383.4,535.8c0.1,6.7-5,12.2-11.7,12.5c-6.9,0.3-12.9-5.3-12.9-12c0-6.6,5.4-12,12.2-12.2
			C377.7,523.9,383.1,529,383.4,535.8z"/>
		<path class="st3" d="M398.9,551.7c-3.7-0.3-6.2-2.3-6.3-5.9c-0.1-3.5,1.9-6,5.6-6.2c3.7-0.1,6,1.9,6.2,5.6
			C404.7,549,402.5,551,398.9,551.7z"/>
		<path class="st3" d="M536.7,445.2c6.6-0.1,12.3,5.3,12.6,11.7c0.3,6.6-5.1,12.3-11.6,12.6c-7,0.3-12.9-5.3-12.9-12
			C524.6,451,530.1,445.2,536.7,445.2z"/>
		<path class="st3" d="M564.8,461.1c3.7,0.3,5.6,2.6,5.6,6.2c-0.1,3.7-2.3,5.9-6.2,5.7c-3.8-0.1-6-2.6-5.7-6.2
			C558.7,463.3,560.9,461.1,564.8,461.1z"/>
	</g>
</g>
</svg>
