<?xml version="1.0" encoding="utf-8"?>
<!-- Generator: Adobe Illustrator 19.2.0, SVG Export Plug-In . SVG Version: 6.00 Build 0)  -->
<svg version="1.1" id="Calque_1" xmlns="http://www.w3.org/2000/svg" xmlns:xlink="http://www.w3.org/1999/xlink" x="0px" y="0px"
	 viewBox="0 0 800 800" style="enable-background:new 0 0 800 800;" xml:space="preserve">
<style type="text/css">
	.st0{fill:none;}
	.st1{fill:#4A3424;}
	.st2{fill:#F2E5F3;}
	.st3{fill:#E7D5EB;}
	.st4{fill:#FBC983;}
	.st5{fill:#F2B658;}
	.st6{fill:#E9D6ED;}
	.st7{fill:#FDFDFD;}
	.st8{fill:#493526;}
	.st9{fill:#493626;}
	.st10{fill:#4A3A2A;}
	.st11{fill:#F9F3F8;}
	.st12{fill:#F5EFF4;}
	.st13{fill:#F6F5F3;}
	.st14{fill:#F0EEEA;}
</style>
<g>
	<g>
		<path class="st0" d="M600,401c0,89.7,0,179.3,0.1,269c0,3.4-0.7,4.1-4.1,4.1c-129.7-0.1-259.3-0.1-389,0c-3.4,0-4.1-0.7-4.1-4.1
			c0.1-179.3,0.1-358.7,0-538c0-3.4,0.7-4.1,4.1-4.1c129.7,0.1,259.3,0.1,389,0c3.4,0,4.1,0.7,4.1,4.1C600,221.7,600,311.3,600,401z
			 M383,144.8c-9.5,0-18.8,1.4-28.1,3.4c-24.9,5.5-47.9,15.7-69.7,28.7c-18.8,11.3-35.7,24.9-47.4,43.9c-13.6,22-18.2,45.5-8.2,70
			c7.9,19.3,17.4,38.1,26.3,57c10.8,22.8,21.7,45.4,32.5,68.2c22.4,47.2,44.7,94.5,67.1,141.7c2.4,5.1,5.9,9.6,10.8,12.8
			c11.1,7.2,23.1,7.2,35.4,4.6c14.2-3.1,26.6-10.5,39.6-16.3c5.8-2.6,5.8-2.6,8.1,3.5c7.8,20.4,17,40.2,29.7,58
			c8.7,12.1,18.7,22.6,32.8,28.9c18.1,8.1,34.8,1,41.4-17.7c5.5-15.8,3.2-31.4-1.1-46.9c-5.8-21.1-15.5-40.6-26.4-59.5
			c-2.5-4.3-1.9-6,2.4-7.5c0.6-0.2,1.2-0.5,1.8-0.8c14.6-6.9,29.9-12.8,41.8-24.4c12.1-11.8,17.9-26.6,10.8-41.6
			c-23.3-49.1-46.5-98.1-69.8-147.2c-11.5-24.3-22.9-48.6-34.5-72.9c-7.4-15.7-13.9-31.9-22.7-46.8
			C439.4,156.5,413.7,145.5,383,144.8z"/>
		<path class="st1" d="M383,144.8c30.8,0.7,56.5,11.8,72.6,39c8.8,14.9,15.2,31.1,22.7,46.8c11.5,24.3,23,48.6,34.5,72.9
			c23.2,49.1,46.5,98.2,69.8,147.2c7.1,15,1.3,29.8-10.8,41.6c-11.9,11.6-27.2,17.5-41.8,24.4c-0.6,0.3-1.2,0.6-1.8,0.8
			c-4.2,1.4-4.9,3.2-2.4,7.5c11,18.8,20.6,38.3,26.4,59.5c4.3,15.5,6.6,31.1,1.1,46.9c-6.6,18.7-23.3,25.8-41.4,17.7
			c-14-6.2-24.1-16.8-32.8-28.9c-12.8-17.9-21.9-37.6-29.7-58c-2.3-6-2.3-6-8.1-3.5c-13,5.9-25.5,13.3-39.6,16.3
			c-12.3,2.7-24.3,2.7-35.4-4.6c-4.9-3.2-8.3-7.6-10.8-12.8c-22.4-47.2-44.7-94.5-67.1-141.7c-10.8-22.8-21.8-45.4-32.5-68.2
			c-8.9-18.9-18.4-37.6-26.3-57c-10-24.5-5.3-48,8.2-70c11.7-19,28.6-32.6,47.4-43.9c21.7-13,44.7-23.3,69.7-28.7
			C364.1,146.1,373.4,144.8,383,144.8z M504.9,529.9c-16,6.6-31.3,14.6-47,21.8c-2,0.9-1.5,2.2-1,3.6c9.9,25.3,20.7,50.1,39.1,70.7
			c5.5,6.7,12.2,11.7,20.2,14.8c13.8,5.5,23.9,0.6,28.4-13.4c3.3-10.1,2.6-20.3,0.6-30.5c-4.4-22.8-14.4-43.4-25.5-63.5
			c-5.3-9.5-5.3-9.5-14.7-3.9C505.1,529.6,505,529.7,504.9,529.9z M375,154.2c-6.7,1.1-13.4,1.9-20,3.4
			c-21.4,4.8-41.2,13.5-60.1,24.3c-20,11.4-38.1,25.1-50.2,45.2c-12.1,20.1-15,41.5-5.7,63.3c7.7,18,16.5,35.5,24.8,53.1
			c28.4,59.9,56.8,119.8,85.3,179.6c5.6,11.8,10.5,23.9,17.4,35.1c3.4,6.2,9.4,8.1,15.7,9c13.2,1.8,25.3-2.1,37-7.6
			c40-18.8,80-37.8,119.9-56.8c7.8-3.7,15.5-7.5,22.3-13c14.7-12,19.4-24,9.9-42.6c-13.6-26.9-26.2-54.3-39.1-81.6
			c-14.2-30-28.1-60-42.3-90c-12.6-26.7-25.2-53.3-37.9-79.9c-2.9-6.1-6.2-12.1-10.8-17.2C423.4,158.6,400.7,152.3,375,154.2z"/>
		<path class="st2" d="M366.5,558.2c-6.8-11.2-11.8-23.3-17.4-35.1c-28.5-59.8-56.9-119.7-85.3-179.6c-8.4-17.7-17.2-35.2-24.8-53.1
			c-9.3-21.9-6.4-43.2,5.7-63.3c12.1-20.1,30.2-33.8,50.2-45.2c18.9-10.8,38.8-19.5,60.1-24.3c6.6-1.5,13.3-2.3,20-3.4
			c0.1,1.8,1.7,2.1,2.9,2.2c4.3,0.3,7.8,2.6,11.7,4c14.7,5.4,25.9,15.3,32.9,29c10,19.4,18.6,39.6,28,59.3
			c9.8,20.6,19.9,41.2,29.7,61.8c9.3,19.4,18.4,38.8,27.6,58.3c9.3,19.5,18.6,39,27.8,58.5c2,4.2,3.6,8.5,5.4,12.8
			c-6.3-0.8-12.1,1-17.9,3c-2.4-13.5-9.3-19-24.1-18.9c-0.3-0.9-0.5-1.9-0.9-2.8c-7.9-16.8-15.8-33.6-23.7-50.4
			c-4.6-9.7-9.1-19.5-13.7-29.2c-6.9-14.7-13.9-29.3-20.9-43.9c-5.3-11.2-10.7-22.5-16-33.7c-6.6-13.9-13.2-27.9-19.8-41.8
			c-1.4-2.9-3.6-4.4-7.1-4.4c-8.8,0.2-15.9,4.6-22.5,9.4c-7,5.1-6.7,7.7-2.7,15.4c2.8,5.4,5.5,10.8,8,16.4
			c9.8,21.9,20.6,43.3,30.5,65.2c6.7,14.9,14.3,29.5,21.2,44.4c11.3,24.5,23,48.8,34.6,73.3c2.2,4.7,7,6.9,12,5.5
			c1.9-0.5,3.8-1,5.8-1.5c1.2,7.2,5,12.3,11.7,15.4c6.8,3.1,13.1,1.3,19.3-1.6c2.3,3.7,5.8,5.3,10,5.2c9.2-0.2,16.3-4.1,21.2-12
			c2.2,3.8,0.8,7.4-0.6,10.9c-4.9,12.2-14.8,19.5-25.8,25c-20.8,10.4-42.2,19.5-62.9,29.8c-20.8,10.4-42,19.8-62.7,30.2
			C385.3,553.3,376.4,557.2,366.5,558.2z M443.8,496.7c7.3,3.7,21.6-3,25.3-11.9c5.2-6.3,5.2-13.5-0.3-18.1
			c-1.5-1.2-3.1-3.3-5.3,0.3c-6.8,11.3-17,16.3-30.2,14.3c-2.5-0.4-3.1,0.3-3.2,2.8C429.7,491.6,435.7,497.2,443.8,496.7z
			 M396,516.1c14.1-5.8,18.1-20.5,8.6-32.4c3.1-3.1,7.4-4.2,11.2-6c6.2-3,9.6-8.1,7.5-12.7c-4-9.1-8.2-18.1-12.5-27.1
			c-7-14.8-14.1-29.6-21.2-44.3c-4.8-10-9.7-20-14.2-30.1c-4.3-9.8-9.6-19.3-14.2-29c-6.3-13.3-12.1-26.9-18.6-40.1
			c-5.5-11.1-10.7-22.4-15.9-33.7c-1.7-3.8-4.4-5.9-8.5-5.5c-9.6,0.9-17.6,5.6-24.8,11.3c-2.5,2-3.3,5.7-1.6,9.2
			c8.4,17.8,16.8,35.7,25.2,53.5c9,18.8,18.1,37.6,27.2,56.5c9.2,19.3,18.4,38.6,27.5,58c5.3,11.4,10.4,22.9,15.6,34.3
			c-9.4,2.3-15.1,8.1-16.3,16.2c-1.1,7.8,1.8,13.8,7.2,19c-7,0.9-11.1,5.7-14,11.4c-2.2,4.5,0.8,10.3,5.5,11.4
			C381,538.4,398.4,529.9,396,516.1z M246,262.2c-0.6,8.9,2.3,14.5,6.3,21.2c1.9,3.1,4.6,5.9,8.8,5.6c4.4-0.3,6.7-3.9,7.3-7.2
			c2.4-12.4,6.1-24.2,11.8-35.6c3-6.1-0.4-13.7-5.9-16.9c-3.9-2.3-10.9-0.8-15.5,3.6C250.4,240.6,245.6,250.1,246,262.2z"/>
		<path class="st3" d="M366.5,558.2c9.9-1,18.8-4.9,27.6-9.3c20.7-10.4,42-19.8,62.7-30.2c20.8-10.4,42.2-19.5,62.9-29.8
			c11-5.5,21-12.9,25.8-25c1.4-3.5,2.7-7.2,0.6-10.9c2.5-6-0.4-9.8-5-13c-1.8-4.3-3.4-8.6-5.4-12.8c-9.2-19.5-18.5-39-27.8-58.5
			c-9.2-19.4-18.3-38.9-27.6-58.3c-9.9-20.6-19.9-41.1-29.7-61.8c-9.4-19.8-18-39.9-28-59.3c-7-13.6-18.2-23.6-32.9-29
			c-3.9-1.4-7.4-3.7-11.7-4c-1.2-0.1-2.8-0.4-2.9-2.2c25.7-1.9,48.4,4.5,66.2,24.2c4.6,5.1,7.9,11.1,10.8,17.2
			c12.7,26.6,25.3,53.3,37.9,79.9c14.1,30,28.1,60,42.3,90c12.9,27.3,25.5,54.7,39.1,81.6c9.4,18.7,4.8,30.6-9.9,42.6
			c-6.8,5.6-14.5,9.3-22.3,13c-39.9,19.1-79.9,38-119.9,56.8c-11.7,5.5-23.8,9.4-37,7.6C375.9,566.3,369.9,564.4,366.5,558.2z"/>
		<path class="st4" d="M496.1,626c-18.4-20.6-29.3-45.4-39.1-70.7c-0.6-1.5-1-2.7,1-3.6c15.7-7.2,31-15.2,47-21.8
			c0.2,1,0.1,2.1,0.6,2.9c6.1,11.4,10.4,23.5,14.4,35.8c5.1,15.6,7.4,31.1,1.1,47c-3.2,8.1-11.3,12.8-19.9,10.9
			C499.4,626.2,497.8,626.2,496.1,626z"/>
		<path class="st5" d="M496.1,626c1.6,0.2,3.3,0.2,4.9,0.6c8.7,1.8,16.7-2.8,19.9-10.9c6.3-15.9,4-31.4-1.1-47
			c-4-12.3-8.3-24.4-14.4-35.8c-0.4-0.8-0.4-1.9-0.6-2.9c0.1-0.1,0.2-0.3,0.3-0.4c9.4-5.6,9.5-5.6,14.7,3.9
			c11.1,20.1,21.1,40.7,25.5,63.5c2,10.2,2.7,20.4-0.6,30.5c-4.6,14-14.7,18.9-28.4,13.4C508.4,637.7,501.6,632.7,496.1,626z"/>
		<path class="st6" d="M387.3,477.7c-5.2-11.4-10.3-22.9-15.6-34.3c-9.1-19.4-18.3-38.7-27.5-58c-9-18.8-18.2-37.6-27.2-56.5
			c-8.5-17.8-16.8-35.6-25.2-53.5c-1.6-3.5-0.9-7.2,1.6-9.2c7.3-5.7,15.3-10.5,24.8-11.3c4.2-0.4,6.8,1.8,8.5,5.5
			c5.2,11.3,10.4,22.5,15.9,33.7c6.5,13.2,12.3,26.8,18.6,40.1c4.6,9.7,9.9,19.1,14.2,29c4.5,10.2,9.4,20.1,14.2,30.1
			c7.1,14.8,14.2,29.5,21.2,44.3c4.2,9,8.5,18,12.5,27.1c2,4.6-1.3,9.8-7.5,12.7c-3.8,1.8-8.1,2.9-11.2,6
			C399.6,479.4,394,476.9,387.3,477.7z"/>
		<path class="st6" d="M483.9,446c-1.9,0.5-3.9,0.9-5.8,1.5c-5,1.4-9.8-0.8-12-5.5c-11.5-24.4-23.3-48.7-34.6-73.3
			c-6.9-14.9-14.5-29.5-21.2-44.4c-9.8-21.9-20.7-43.3-30.5-65.2c-2.5-5.5-5.2-11-8-16.4c-4-7.7-4.3-10.3,2.7-15.4
			c6.6-4.8,13.7-9.2,22.5-9.4c3.5-0.1,5.7,1.5,7.1,4.4c6.6,13.9,13.2,27.8,19.8,41.8c5.3,11.2,10.6,22.5,16,33.7
			c7,14.6,14,29.3,20.9,43.9c4.6,9.7,9.1,19.5,13.7,29.2c7.9,16.8,15.8,33.6,23.7,50.4c0.4,0.9,0.6,1.9,0.9,2.8
			C487.2,429.3,483.3,434.8,483.9,446z"/>
		<path class="st7" d="M246,262.2c-0.4-12.1,4.4-21.6,12.8-29.4c4.6-4.3,11.7-5.9,15.5-3.6c5.4,3.2,8.9,10.9,5.9,16.9
			c-5.7,11.4-9.4,23.2-11.8,35.6c-0.7,3.3-2.9,6.9-7.3,7.2c-4.2,0.3-6.9-2.5-8.8-5.6C248.3,276.6,245.4,271,246,262.2z"/>
		<path class="st8" d="M387.3,477.7c6.7-0.8,12.3,1.6,17.3,5.9c9.5,12,5.5,26.6-8.6,32.4c-6.4,1.6-12.3,0.2-17.8-3.2
			c-5.4-5.2-8.3-11.3-7.2-19C372.2,485.9,377.9,480.1,387.3,477.7z M389.8,493.9c-0.1-4.5-3.8-8.1-8.4-8c-4.5,0-8.2,3.7-8.3,8.2
			c-0.1,4.7,3.9,8.5,8.7,8.3C386.4,502.2,389.9,498.5,389.8,493.9z M404.3,500.6c-0.2-2.6-1.6-4-4.2-3.9s-4,1.8-3.9,4.2
			c0.1,2.4,1.8,4,4.2,3.9C402.9,504.7,404.2,503,404.3,500.6z"/>
		<path class="st9" d="M483.9,446c-0.5-11.2,3.3-16.7,15.1-21.9c14.7-0.1,21.7,5.3,24.1,18.9c-0.2,6.8-3.4,12.2-8.2,16.7
			c-6.2,3-12.6,4.7-19.3,1.6C488.8,458.4,485,453.2,483.9,446z M494.6,448.8c4.4,0,8.3-3.7,8.4-8.2c0.1-4.4-3.7-8.3-8.1-8.4
			c-4.6-0.2-8.7,3.8-8.6,8.4C486.3,445.1,490,448.8,494.6,448.8z M517.4,447c-0.4-2.5-1.6-4.1-4.2-4c-2.6,0.1-4,1.8-4,4.2
			c0,2.5,1.7,4,4.2,3.9C516,451.1,517.2,449.4,517.4,447z"/>
		<path class="st10" d="M443.8,496.7c-8.1,0.6-14.1-5-13.7-12.6c0.1-2.4,0.8-3.2,3.2-2.8c13.2,2,23.4-3,30.2-14.3
			c2.2-3.6,3.8-1.5,5.3-0.3c5.5,4.6,5.5,11.8,0.3,18.1C458.2,481.1,447,486.4,443.8,496.7z"/>
		<path class="st11" d="M514.9,459.7c4.8-4.5,8-9.9,8.2-16.7c5.8-2,11.7-3.8,17.9-3c4.6,3.2,7.6,7,5,13c-4.9,7.9-12,11.8-21.2,12
			C520.6,465.1,517.1,463.5,514.9,459.7z"/>
		<path class="st11" d="M378.2,512.9c5.5,3.4,11.4,4.8,17.8,3.2c2.4,13.9-15,22.3-26.3,19.6c-4.7-1.1-7.7-6.9-5.5-11.4
			C367.1,518.6,371.2,513.8,378.2,512.9z"/>
		<path class="st12" d="M443.8,496.7c3.2-10.3,14.4-15.6,25.3-11.9C465.4,493.6,451.1,500.4,443.8,496.7z"/>
		<path class="st13" d="M389.8,493.9c0.1,4.6-3.4,8.3-8,8.4c-4.7,0.2-8.7-3.6-8.7-8.3c0.1-4.5,3.8-8.1,8.3-8.2
			C386,485.8,389.8,489.4,389.8,493.9z"/>
		<path class="st14" d="M404.3,500.6c-0.1,2.4-1.4,4.1-3.9,4.2c-2.4,0.1-4.1-1.5-4.2-3.9s1.3-4.1,3.9-4.2
			C402.7,496.6,404.1,498,404.3,500.6z"/>
		<path class="st13" d="M494.6,448.8c-4.5,0-8.3-3.7-8.4-8.2c-0.1-4.7,4-8.6,8.6-8.4c4.5,0.2,8.2,4.1,8.1,8.4
			C502.9,445.1,499,448.9,494.6,448.8z"/>
		<path class="st14" d="M517.4,447c-0.2,2.4-1.4,4-4,4.1c-2.5,0.1-4.2-1.4-4.2-3.9c0-2.4,1.4-4,4-4.2
			C515.9,442.9,517.1,444.5,517.4,447z"/>
	</g>
</g>
</svg>
