<?xml version="1.0" encoding="utf-8"?>
<!-- Generator: Adobe Illustrator 19.2.0, SVG Export Plug-In . SVG Version: 6.00 Build 0)  -->
<svg version="1.1" id="Calque_1" xmlns="http://www.w3.org/2000/svg" xmlns:xlink="http://www.w3.org/1999/xlink" x="0px" y="0px"
	 viewBox="0 0 800 800" style="enable-background:new 0 0 800 800;" xml:space="preserve">
<style type="text/css">
	.st0{fill:none;}
	.st1{stroke:#020001;stroke-width:25;stroke-miterlimit:10;}
</style>
<g>
	<g>
		<path class="st0" d="M691.5,400c0,131.4,0,262.6,0.1,394c0,5-1,6-6,6c-190-0.1-379.8-0.1-569.8,0c-5,0-6-1-6-6
			c0.1-262.6,0.1-525.4,0-788c0-5,1-6,6-6c190,0.1,379.8,0.1,569.8,0c5,0,6,1,6,6C691.5,137.4,691.5,268.6,691.5,400z M373.7,24.8
			c-13.9,0-27.5,2.1-41.2,5c-36.5,8.1-70.2,23-102.1,42c-27.5,16.6-52.3,36.5-69.4,64.3c-19.9,32.2-26.7,66.6-12,102.5
			c11.6,28.3,25.5,55.8,38.5,83.5c15.8,33.4,31.8,66.5,47.6,99.9c32.8,69.1,65.5,138.4,98.3,207.5c3.5,7.5,8.6,14.1,15.8,18.7
			c16.3,10.5,33.8,10.5,51.8,6.7c20.8-4.5,39-15.4,58-23.9c8.5-3.8,8.5-3.8,11.9,5.1c11.4,29.9,24.9,58.9,43.5,85
			c12.7,17.7,27.4,33.1,48,42.3c26.5,11.9,51,1.5,60.6-25.9c8.1-23.1,4.7-46-1.6-68.7c-8.5-30.9-22.7-59.5-38.7-87.1
			c-3.7-6.3-2.8-8.8,3.5-11c0.9-0.3,1.8-0.7,2.6-1.2c21.4-10.1,43.8-18.7,61.2-35.7c17.7-17.3,26.2-39,15.8-60.9
			c-34.1-71.9-68.1-143.7-102.2-215.6c-16.8-35.6-33.5-71.2-50.5-106.8c-10.8-23-20.4-46.7-33.2-68.5
			C456.3,41.9,418.6,25.8,373.7,24.8z"/>
		<path class="st1" d="M373.7,24.8c45.1,1,82.8,17.3,106.3,57.1c12.9,21.8,22.3,45.6,33.2,68.5c16.8,35.6,33.7,71.2,50.5,106.8
			c34,71.9,68.1,143.8,102.2,215.6c10.4,22,1.9,43.6-15.8,60.9c-17.4,17-39.8,25.6-61.2,35.7c-0.9,0.4-1.8,0.9-2.6,1.2
			c-6.2,2.1-7.2,4.7-3.5,11c16.1,27.5,30.2,56.1,38.7,87.1c6.3,22.7,9.7,45.6,1.6,68.7c-9.7,27.4-34.1,37.8-60.6,25.9
			c-20.5-9.1-35.3-24.6-48-42.3c-18.7-26.2-32.1-55.1-43.5-85c-3.4-8.8-3.4-8.8-11.9-5.1c-19,8.6-37.3,19.5-58,23.9
			c-18,4-35.6,4-51.8-6.7c-7.2-4.7-12.2-11.1-15.8-18.7c-32.8-69.1-65.5-138.4-98.3-207.5c-15.8-33.4-31.9-66.5-47.6-99.9
			c-13-27.7-26.9-55.1-38.5-83.5c-14.6-35.9-7.8-70.3,12-102.5c17.1-27.8,41.9-47.7,69.4-64.3c31.8-19,65.5-34.1,102.1-42
			C346,26.7,359.6,24.8,373.7,24.8z M552.2,588.8c-23.4,9.7-45.8,21.4-68.8,31.9c-2.9,1.3-2.2,3.2-1.5,5.3
			c14.5,37.1,30.3,73.4,57.3,103.6c8.1,9.8,17.9,17.1,29.6,21.7c20.2,8.1,35,0.9,41.6-19.6c4.8-14.8,3.8-29.7,0.9-44.7
			c-6.4-33.4-21.1-63.6-37.3-93c-7.8-13.9-7.8-13.9-21.5-5.7C552.5,588.4,552.4,588.5,552.2,588.8z M362,38.5
			c-9.8,1.6-19.6,2.8-29.3,5c-31.3,7-60.3,19.8-88,35.6c-29.3,16.7-55.8,36.8-73.5,66.2c-17.7,29.4-22,60.8-8.3,92.7
			c11.3,26.4,24.2,52,36.3,77.8c41.6,87.7,83.2,175.5,124.9,263.1c8.2,17.3,15.4,35,25.5,51.4c5,9.1,13.8,11.9,23,13.2
			c19.3,2.6,37.1-3.1,54.2-11.1c58.6-27.5,117.2-55.4,175.6-83.2c11.4-5.4,22.7-11,32.7-19c21.5-17.6,28.4-35.2,14.5-62.4
			c-19.9-39.4-38.4-79.5-57.3-119.5c-20.8-43.9-41.2-87.9-62-131.8c-18.5-39.1-36.9-78.1-55.5-117c-4.2-8.9-9.1-17.7-15.8-25.2
			C432.8,45,399.6,35.7,362,38.5z"/>
	</g>
</g>
</svg>
