<?xml version="1.0" encoding="utf-8"?>
<!-- Generator: Adobe Illustrator 19.2.0, SVG Export Plug-In . SVG Version: 6.00 Build 0)  -->
<svg version="1.1" id="Calque_1" xmlns="http://www.w3.org/2000/svg" xmlns:xlink="http://www.w3.org/1999/xlink" x="0px" y="0px"
	 viewBox="0 0 800 800" style="enable-background:new 0 0 800 800;" xml:space="preserve">
<style type="text/css">
	.st0{fill:none;}
	.st1{fill:#4C3423;}
	.st2{fill:#E5F3ED;}
	.st3{fill:#D5EBE0;}
	.st4{fill:#FBC983;}
	.st5{fill:#F2B658;}
	.st6{fill:#D6EDE1;}
	.st7{fill:#FDFDFD;}
	.st8{fill:#4B3424;}
	.st9{fill:#4B3425;}
	.st10{fill:#4E3829;}
	.st11{fill:#F3F9F8;}
	.st12{fill:#EFF5F4;}
	.st13{fill:#F6F5F3;}
	.st14{fill:#F0EEEA;}
</style>
<g>
	<g>
		<path class="st0" d="M600,401c0,89.7,0,179.3,0.1,269c0,3.4-0.7,4.1-4.1,4.1c-129.7-0.1-259.3-0.1-389,0c-3.4,0-4.1-0.7-4.1-4.1
			c0.1-179.3,0.1-358.7,0-538c0-3.4,0.7-4.1,4.1-4.1c129.7,0.1,259.3,0.1,389,0c3.4,0,4.1,0.7,4.1,4.1C600,221.7,600,311.3,600,401z
			 M383.1,144.8c-9.5,0-18.9,1.3-28.1,3.3c-24.9,5.5-47.9,15.7-69.7,28.7c-19,11.4-36,25.1-47.8,44.3c-13.5,22.1-18,45.6-8,70.1
			c7.7,18.7,16.9,36.8,25.6,55.1c18.7,39.4,37.4,78.8,56.1,118.2c14.7,31,29.3,62,44.1,93c2.3,4.8,5.4,9.1,9.9,12.2
			c11.2,7.9,23.5,8,36.2,5.3c14-3,26.4-10.1,39.2-16.1c6.3-3,6.3-2.9,8.8,3.5c7.7,19.7,16.5,38.9,28.7,56.4
			c9,12.8,19.2,24.2,34,30.4c16.3,6.9,31.4,3.1,39.4-14c5.9-12.6,5.9-25.7,3.3-38.9c-5-26-16.5-49.3-29.6-71.9
			c-1.9-3.2-1.9-5,1.7-6.3c0.9-0.3,1.8-0.9,2.7-1.3c14.7-6.9,29.9-12.8,41.8-24.3c12.2-11.8,18-26.8,11-41.5
			c-23.3-49.1-46.5-98.2-69.8-147.2c-11.6-24.4-23.1-48.9-34.7-73.4c-7.4-15.7-13.9-31.9-22.7-46.7
			C439.3,156.5,413.7,145.5,383.1,144.8z"/>
		<path class="st1" d="M383.1,144.8c30.6,0.8,56.2,11.7,72.2,38.7c8.8,14.8,15.3,31.1,22.7,46.7c11.6,24.4,23.1,48.9,34.7,73.4
			c23.2,49.1,46.5,98.2,69.8,147.2c7,14.7,1.2,29.8-11,41.5c-11.9,11.5-27.2,17.4-41.8,24.3c-0.9,0.4-1.7,0.9-2.7,1.3
			c-3.6,1.3-3.6,3-1.7,6.3c13,22.7,24.6,46,29.6,71.9c2.5,13.2,2.6,26.3-3.3,38.9c-8,17.2-23.1,20.9-39.4,14
			c-14.7-6.2-25-17.6-34-30.4c-12.2-17.4-21-36.6-28.7-56.4c-2.5-6.4-2.5-6.5-8.8-3.5c-12.8,6-25.2,13.1-39.2,16.1
			c-12.7,2.7-25,2.6-36.2-5.3c-4.5-3.2-7.6-7.4-9.9-12.2c-14.7-31-29.4-62-44.1-93c-18.7-39.4-37.4-78.8-56.1-118.2
			c-8.7-18.3-17.9-36.4-25.6-55.1c-10-24.5-5.5-48.1,8-70.1c11.7-19.2,28.8-32.9,47.8-44.3c21.8-13,44.8-23.2,69.7-28.7
			C364.3,146,373.6,144.7,383.1,144.8z M504.9,529.9c-15.8,6.4-30.9,14.5-46.5,21.5c-2.4,1.1-2,2.7-1.3,4.5
			c9.9,25.1,20.7,49.7,39,70.1c5.5,6.7,12.2,11.7,20.2,14.8c13.8,5.5,23.9,0.6,28.4-13.4c3.3-10.1,2.6-20.3,0.6-30.5
			c-4.4-22.8-14.4-43.4-25.5-63.5c-5.3-9.5-5.3-9.5-14.7-3.9C505.1,529.6,505,529.7,504.9,529.9z M373.8,154.3
			c-6.4,1.1-12.8,1.9-19.1,3.3c-23.3,5.3-44.9,15-65.2,27.3c-18.1,10.9-34.3,24.1-45.2,42.6c-11.8,20.1-14.6,41.2-5.3,62.9
			c7.7,18,16.5,35.4,24.8,53.1c28.3,59.7,56.7,119.4,85.1,179.1c5.7,11.9,10.7,24.2,17.5,35.6c3.4,6.2,9.4,8.1,15.7,8.9
			c13.2,1.8,25.3-2.1,37-7.6c40-18.8,80-37.8,119.9-56.8c7.9-3.8,15.8-7.6,22.7-13.3c13.9-11.5,19-23.3,9.9-41.8
			c-17.6-35.5-34.2-71.4-51.2-107.2c-21.4-45.2-42.8-90.4-64.1-135.6c-4.2-9-7.8-18.4-14.5-25.9C423.6,158.5,400.3,152,373.8,154.3z
			"/>
		<path class="st2" d="M366.5,558.2c-6.8-11.4-11.8-23.6-17.5-35.6c-28.4-59.7-56.8-119.4-85.1-179.1c-8.4-17.7-17.2-35.1-24.8-53.1
			c-9.3-21.7-6.5-42.8,5.3-62.9c10.9-18.5,27.1-31.7,45.2-42.6c20.4-12.3,41.9-22,65.2-27.3c6.3-1.4,12.7-2.2,19.1-3.3
			c4.3,3.7,10,3.6,15,5.6c15.7,6.3,27.5,16.7,34.9,31.7c9.2,18.7,17.6,37.8,26.6,56.7c9.7,20.5,19.8,40.8,29.5,61.3
			c8.9,18.8,17.5,37.8,26.4,56.6c9.5,20,19.2,39.8,28.8,59.7c2.2,4.6,4.1,9.4,6.1,14.2c-6.3-0.8-12.1,1-17.9,3
			c-2.3-13.5-9.3-19-24.1-18.9c-1-2.6-1.7-5.4-2.9-7.9c-11.5-24.1-23-48.1-34.5-72.2c-8.2-17.2-16.3-34.4-24.4-51.7
			c-4.1-8.7-8.1-17.4-12.2-26.1c-6.9-14.7-13.9-29.4-20.9-44c-1.4-2.9-3.7-4.5-7.2-4.3c-9.2,0.6-16.5,5.2-23.6,10.3
			c-4.4,3.2-5,7.3-2.5,12.3c6.3,12.9,12.3,26,18.5,39c8.3,17.3,16.9,34.4,24.8,51.9c5.7,12.5,11.9,24.8,17.6,37.3
			c11.1,24.6,22.9,48.8,34.5,73.2c2.2,4.7,7,6.9,12,5.5c1.9-0.5,3.8-1,5.8-1.5c1.2,7.2,5,12.4,11.7,15.4c6.8,3.1,13.1,1.4,19.3-1.7
			c2.3,3.6,5.5,5.4,9.9,5.3c9.4-0.1,16.2-4.4,21.3-12.1c2.8,6.8-0.6,12.3-4.1,17.4c-7.1,10.6-17.9,16.7-29,22
			c-20.3,9.8-40.7,19.4-61,29c-19.6,9.3-39.2,18.6-58.8,27.9C384.6,553.4,376,557.2,366.5,558.2z M443.8,496.7
			c3.2,3,6.8,1.3,9.7,0.1c6.2-2.5,13.7-3.8,15.6-12c5.2-6.2,5.2-13.6-0.2-18.1c-1.5-1.3-3.2-3.2-5.4,0.4
			c-6.8,11.3-17,16.3-30.2,14.2c-2.5-0.4-3.1,0.5-3.2,2.8C429.7,491.7,435.7,497.3,443.8,496.7z M396,516.1
			c14.1-5.7,18.1-20.5,8.6-32.4c3.1-3.1,7.4-4.2,11.2-6c6.2-3,9.5-8.1,7.5-12.8c-2.5-5.9-5.3-11.8-8-17.6
			c-8.1-17.6-16.9-34.9-25.2-52.4c-12.4-26.1-24.6-52.2-36.9-78.4c-8.8-18.8-17.8-37.5-26.6-56.2c-1.7-3.6-4.3-5.5-8.2-5.2
			c-9.7,0.7-17.5,5.7-24.9,11.3c-2.7,2.1-3.3,5.9-1.6,9.6c8.4,17.7,16.7,35.4,25.1,53c9,18.9,18.2,37.7,27.2,56.5
			c9.2,19.3,18.4,38.6,27.5,58c5.3,11.4,10.4,22.9,15.6,34.3c-9.4,2.2-15.1,8.1-16.3,16.2c-1.2,7.8,1.8,13.8,7.2,19
			c-6.9,0.8-10.8,5.6-13.8,10.9c-2.5,4.5,0.5,10.7,5.4,11.9C381.6,538.6,398.4,529.5,396,516.1z M281,241.9
			c0.1-11.3-8.4-16.6-18.4-11.7c-5.5,2.7-8.6,7.7-11.8,12.6c-7.4,11.5-6.3,31.3,2.3,41.8c5.5,6.7,12.1,5.8,15.2-2.3
			c0.8-2.1,1.3-4.5,1.7-6.7c1.6-8.5,3-16.9,8.3-24.2C280.2,248.6,281.2,245.3,281,241.9z"/>
		<path class="st3" d="M541,440c-2-4.7-3.9-9.5-6.1-14.2c-9.6-19.9-19.3-39.8-28.8-59.7c-8.9-18.8-17.5-37.8-26.4-56.6
			c-9.7-20.5-19.8-40.8-29.5-61.3c-8.9-18.8-17.4-38-26.6-56.7c-7.4-15-19.2-25.4-34.9-31.7c-5-2-10.7-1.9-15-5.6
			c26.4-2.2,49.7,4.2,67.9,24.6c6.7,7.5,10.3,16.9,14.5,25.9c21.4,45.2,42.7,90.4,64.1,135.6c17,35.8,33.6,71.7,51.2,107.2
			c9.2,18.5,4,30.3-9.9,41.8c-6.9,5.7-14.8,9.5-22.7,13.3c-39.9,19-79.9,38-119.9,56.8c-11.7,5.5-23.8,9.4-37,7.6
			c-6.3-0.9-12.3-2.7-15.7-8.9c9.5-1,18.1-4.8,26.7-8.8c19.6-9.3,39.2-18.6,58.8-27.9c20.3-9.7,40.7-19.2,61-29
			c11.1-5.4,21.9-11.4,29-22c3.5-5.2,6.8-10.7,4.1-17.4C548.7,447,545.7,443.2,541,440z"/>
		<path class="st4" d="M496.1,626c-18.3-20.4-29-45-39-70.1c-0.7-1.8-1.1-3.4,1.3-4.5c15.6-7,30.6-15.1,46.5-21.5
			c0.2,1,0.1,2.1,0.6,2.9c6.1,11.4,10.4,23.5,14.4,35.8c5.1,15.6,7.4,31.1,1.1,47c-3.2,8.1-11.3,12.8-19.9,10.9
			C499.4,626.2,497.8,626.2,496.1,626z"/>
		<path class="st5" d="M496.1,626c1.6,0.2,3.3,0.2,4.9,0.6c8.7,1.8,16.7-2.8,19.9-10.9c6.3-15.9,4-31.4-1.1-47
			c-4-12.3-8.3-24.4-14.4-35.8c-0.4-0.8-0.4-1.9-0.6-2.9c0.1-0.1,0.2-0.3,0.3-0.4c9.4-5.6,9.5-5.6,14.7,3.9
			c11.1,20.1,21.1,40.7,25.5,63.5c2,10.2,2.7,20.4-0.6,30.5c-4.6,14-14.7,18.9-28.4,13.4C508.4,637.7,501.6,632.7,496.1,626z"/>
		<path class="st6" d="M387.3,477.7c-5.2-11.4-10.3-22.9-15.6-34.3c-9.1-19.4-18.3-38.7-27.5-58c-9-18.9-18.2-37.7-27.2-56.5
			c-8.4-17.6-16.7-35.4-25.1-53c-1.8-3.7-1.2-7.5,1.6-9.6c7.4-5.6,15.2-10.6,24.9-11.3c3.9-0.3,6.5,1.7,8.2,5.2
			c8.8,18.8,17.8,37.5,26.6,56.2c12.3,26.1,24.5,52.3,36.9,78.4c8.3,17.5,17.1,34.8,25.2,52.4c2.7,5.9,5.5,11.7,8,17.6
			c2,4.7-1.3,9.8-7.5,12.8c-3.8,1.8-8.1,2.9-11.2,6C399.6,479.4,394,476.9,387.3,477.7z"/>
		<path class="st6" d="M483.9,446c-1.9,0.5-3.9,0.9-5.8,1.5c-5,1.4-9.8-0.8-12-5.5c-11.5-24.4-23.4-48.6-34.5-73.2
			c-5.7-12.5-11.9-24.8-17.6-37.3c-7.9-17.5-16.5-34.6-24.8-51.9c-6.2-13-12.2-26.1-18.5-39c-2.4-5-1.9-9,2.5-12.3
			c7.1-5.2,14.5-9.8,23.6-10.3c3.5-0.2,5.8,1.3,7.2,4.3c7,14.6,13.9,29.3,20.9,44c4.1,8.7,8.1,17.4,12.2,26.1
			c8.1,17.2,16.2,34.5,24.4,51.7c11.5,24.1,23,48.1,34.5,72.2c1.2,2.5,2,5.3,2.9,7.9C487.1,429.3,483.3,434.9,483.9,446z"/>
		<path class="st7" d="M281,241.9c0.2,3.5-0.8,6.7-2.8,9.4c-5.2,7.3-6.7,15.7-8.3,24.2c-0.4,2.3-0.9,4.6-1.7,6.7
			c-3.1,8.1-9.7,9-15.2,2.3c-8.6-10.5-9.7-30.3-2.3-41.8c3.2-4.9,6.3-9.8,11.8-12.6C272.6,225.2,281.1,230.6,281,241.9z"/>
		<path class="st8" d="M387.3,477.7c6.7-0.8,12.3,1.6,17.3,5.9c9.5,11.9,5.5,26.7-8.6,32.4c-6.4,1.7-12.3,0.2-17.8-3.2
			c-5.4-5.2-8.4-11.3-7.2-19C372.2,485.9,377.9,480,387.3,477.7z M381.8,485.9c-4.6-0.1-8.4,3.3-8.6,7.9s3.7,8.7,8.4,8.7
			c4.6,0,8.2-3.6,8.3-8.2C389.9,489.7,386.4,486,381.8,485.9z M399.8,496.6c-2.1,0.2-3.6,1.6-3.6,4.1c0,2.4,1.7,4,4.1,4
			c2.5,0,3.9-1.6,3.9-4.1C404.3,498.1,402.8,496.7,399.8,496.6z"/>
		<path class="st9" d="M483.9,446c-0.6-11.1,3.3-16.7,15.1-21.9c14.8-0.1,21.7,5.4,24.1,18.9c-0.2,6.8-3.4,12.2-8.2,16.7
			c-6.2,3-12.6,4.7-19.3,1.7C488.8,458.4,485,453.2,483.9,446z M503,440.5c0-4.4-3.9-8.2-8.3-8.3c-4.7-0.1-8.6,3.9-8.4,8.6
			c0.2,4.5,4,8.1,8.6,8C499.2,448.8,503,444.9,503,440.5z M517.4,447.1c-0.3-2.4-1.3-4.1-4-4c-2.6,0-4.1,1.6-4.1,4
			c-0.1,2.4,1.4,4,4,4.1C515.9,451.1,517.1,449.6,517.4,447.1z"/>
		<path class="st10" d="M443.8,496.7c-8.1,0.6-14.1-5-13.7-12.6c0.1-2.4,0.7-3.2,3.2-2.8c13.2,2.1,23.4-3,30.2-14.2
			c2.2-3.6,3.9-1.6,5.4-0.4c5.4,4.5,5.4,11.9,0.2,18.1C458.2,481.1,447.1,486.3,443.8,496.7z"/>
		<path class="st11" d="M514.9,459.7c4.8-4.5,8-9.9,8.2-16.7c5.8-2,11.7-3.8,17.9-3c4.7,3.1,7.7,7,5,13c-5,7.7-11.9,12-21.3,12.1
			C520.3,465.1,517.2,463.3,514.9,459.7z"/>
		<path class="st11" d="M378.2,512.9c5.5,3.4,11.4,4.8,17.8,3.2c2.4,13.4-14.4,22.6-26.2,19.6c-4.9-1.2-8-7.4-5.4-11.9
			C367.4,518.5,371.3,513.7,378.2,512.9z"/>
		<path class="st12" d="M443.8,496.7c3.3-10.4,14.4-15.6,25.3-11.9c-1.9,8.2-9.4,9.4-15.6,12C450.6,498,447,499.7,443.8,496.7z"/>
		<path class="st13" d="M381.8,485.9c4.6,0.1,8.2,3.8,8.1,8.3c-0.1,4.6-3.7,8.2-8.3,8.2c-4.7,0-8.6-4-8.4-8.7
			C373.4,489.2,377.2,485.8,381.8,485.9z"/>
		<path class="st14" d="M399.8,496.6c3,0.1,4.5,1.5,4.5,4s-1.5,4.1-3.9,4.1s-4.1-1.6-4.1-4C396.2,498.3,397.7,496.8,399.8,496.6z"/>
		<path class="st13" d="M503,440.5c0,4.5-3.7,8.3-8.2,8.4s-8.4-3.6-8.6-8c-0.2-4.7,3.8-8.7,8.4-8.6
			C499.1,432.2,502.9,436.1,503,440.5z"/>
		<path class="st14" d="M517.4,447.1c-0.3,2.5-1.5,4.1-4.2,4c-2.6,0-4.1-1.6-4-4.1c0.1-2.4,1.5-4,4.1-4
			C516.1,443,517.1,444.7,517.4,447.1z"/>
	</g>
</g>
</svg>
