<?xml version="1.0" encoding="utf-8"?>
<!-- Generator: Adobe Illustrator 19.2.0, SVG Export Plug-In . SVG Version: 6.00 Build 0)  -->
<svg version="1.1"
	 id="svg1" inkscape:version="0.40" sodipodi:docbase="/home/danny/work/flat/SVG/mono/scalable/apps" sodipodi:docname="exit.svg" sodipodi:version="0.32" xmlns:cc="http://web.resource.org/cc/" xmlns:dc="http://purl.org/dc/elements/1.1/" xmlns:inkscape="http://www.inkscape.org/namespaces/inkscape" xmlns:ns1="http://sozi.baierouge.fr" xmlns:rdf="http://www.w3.org/1999/02/22-rdf-syntax-ns#" xmlns:sodipodi="http://sodipodi.sourceforge.net/DTD/sodipodi-0.dtd"
	 xmlns="http://www.w3.org/2000/svg" xmlns:xlink="http://www.w3.org/1999/xlink" x="0px" y="0px" viewBox="0 0 60 60"
	 style="enable-background:new 0 0 60 60;" xml:space="preserve">
<style type="text/css">
	.st0{fill:#FFFFFF;}
	.st1{fill:none;stroke:#FFFFFF;stroke-width:4;stroke-miterlimit:10;}
</style>
<sodipodi:namedview  bordercolor="#666666" borderopacity="1.0" id="base" inkscape:current-layer="svg1" inkscape:cx="32.454035" inkscape:cy="22.468175" inkscape:pageopacity="0.0" inkscape:pageshadow="2" inkscape:window-height="698" inkscape:window-width="1024" inkscape:window-x="0" inkscape:window-y="0" inkscape:zoom="5.3863214" pagecolor="#ffffff">
	</sodipodi:namedview>
<path id="path696" class="st0" d="M37.5,8.7v7.8c6.1,3.2,9.5,9.9,8.3,16.9c-1.4,7.8-8.1,13.3-15.9,13.3c-7.9-0.1-14.5-5.8-15.7-13.6
	c-1.1-6.9,2.4-13.5,8.4-16.7V8.8C14.6,11.5,8.9,18.2,7.3,26c-0.5,2.6-0.6,5.4-0.2,8.2c1.7,11.2,11.4,19.6,22.7,19.7
	c11.3,0.1,21.1-8.1,23-19.2c1.9-11.2-4.5-22.1-15.2-25.9C37.6,8.7,37.5,8.7,37.5,8.7L37.5,8.7z"/>
<path id="path701" sodipodi:nodetypes="cc" class="st1" d="M30,3.9v24.5"/>
</svg>
